<svg width="77" height="52" viewBox="0 0 77 52" fill="none" xmlns="http://www.w3.org/2000/svg">
<rect x="0.5" width="76" height="52" rx="26" fill="#703BF7"/>
<g clip-path="url(#clip0_95_6836)">
<path d="M34.0502 35.75C43.1045 35.75 48.0583 28.2467 48.0583 21.7419C48.0583 21.5309 48.0536 21.3153 48.0442 21.1044C49.0079 20.4075 49.8395 19.5443 50.5 18.5553C49.6025 18.9546 48.6496 19.2154 47.6739 19.3287C48.7013 18.7129 49.4705 17.7455 49.8391 16.6058C48.8726 17.1786 47.8156 17.5826 46.7134 17.8006C45.9708 17.0116 44.989 16.4891 43.9197 16.3141C42.8504 16.139 41.7532 16.3211 40.7977 16.8321C39.8423 17.3431 39.0818 18.1547 38.6338 19.1413C38.1859 20.1279 38.0754 21.2346 38.3195 22.2903C36.3625 22.1921 34.4479 21.6837 32.7 20.7981C30.952 19.9125 29.4097 18.6694 28.173 17.1495C27.5444 18.2332 27.3521 19.5156 27.635 20.7361C27.918 21.9565 28.6551 23.0234 29.6964 23.72C28.9146 23.6952 28.15 23.4847 27.4656 23.1059V23.1669C27.4649 24.3041 27.8581 25.4066 28.5783 26.2868C29.2985 27.167 30.3013 27.7706 31.4162 27.995C30.6921 28.1931 29.932 28.222 29.1948 28.0794C29.5095 29.0574 30.1216 29.9129 30.9458 30.5263C31.77 31.1398 32.7651 31.4806 33.7923 31.5012C32.0484 32.8711 29.8942 33.6141 27.6766 33.6106C27.2833 33.61 26.8904 33.5859 26.5 33.5384C28.7529 34.9837 31.3735 35.7514 34.0502 35.75Z" fill="white"/>
</g>
<defs>
<clipPath id="clip0_95_6836">
<rect width="24" height="24" fill="white" transform="translate(26.5 14)"/>
</clipPath>
</defs>
</svg>
