<svg width="69" height="31" viewBox="0 0 69 31" fill="none" xmlns="http://www.w3.org/2000/svg">
<g clip-path="url(#clip0_93_6307)">
<path d="M15 30.5166C23.2843 30.5166 30 23.8009 30 15.5166C30 7.23234 23.2843 0.516693 15 0.516693C6.71573 0.516693 0 7.23234 0 15.5166C0 23.8009 6.71573 30.5166 15 30.5166Z" fill="#666666"/>
<path d="M0 45.5C8.28427 45.5 15 38.7843 15 30.5C15 22.2157 8.28427 15.5 0 15.5C-8.28427 15.5 -15 22.2157 -15 30.5C-15 38.7843 -8.28427 45.5 0 45.5Z" fill="#141414"/>
<path d="M30 45.5C38.2843 45.5 45 38.7843 45 30.5C45 22.2157 38.2843 15.5 30 15.5C21.7157 15.5 15 22.2157 15 30.5C15 38.7843 21.7157 45.5 30 45.5Z" fill="#141414"/>
<path d="M0 15.5C8.28427 15.5 15 8.78427 15 0.5C15 -7.78427 8.28427 -14.5 0 -14.5C-8.28427 -14.5 -15 -7.78427 -15 0.5C-15 8.78427 -8.28427 15.5 0 15.5Z" fill="#141414"/>
<path d="M30 15.5C38.2843 15.5 45 8.78427 45 0.5C45 -7.78427 38.2843 -14.5 30 -14.5C21.7157 -14.5 15 -7.78427 15 0.5C15 8.78427 21.7157 15.5 30 15.5Z" fill="#141414"/>
</g>
<g clip-path="url(#clip1_93_6307)">
<path d="M45 24.51C49.9706 24.51 54 20.4805 54 15.51C54 10.5394 49.9706 6.51001 45 6.51001C40.0294 6.51001 36 10.5394 36 15.51C36 20.4805 40.0294 24.51 45 24.51Z" fill="#333333"/>
<path d="M36 33.5C40.9706 33.5 45 29.4706 45 24.5C45 19.5294 40.9706 15.5 36 15.5C31.0294 15.5 27 19.5294 27 24.5C27 29.4706 31.0294 33.5 36 33.5Z" fill="#141414"/>
<path d="M54 33.5C58.9706 33.5 63 29.4706 63 24.5C63 19.5294 58.9706 15.5 54 15.5C49.0294 15.5 45 19.5294 45 24.5C45 29.4706 49.0294 33.5 54 33.5Z" fill="#141414"/>
<path d="M36 15.5C40.9706 15.5 45 11.4706 45 6.5C45 1.52944 40.9706 -2.5 36 -2.5C31.0294 -2.5 27 1.52944 27 6.5C27 11.4706 31.0294 15.5 36 15.5Z" fill="#141414"/>
<path d="M54 15.5C58.9706 15.5 63 11.4706 63 6.5C63 1.52944 58.9706 -2.5 54 -2.5C49.0294 -2.5 45 1.52944 45 6.5C45 11.4706 49.0294 15.5 54 15.5Z" fill="#141414"/>
</g>
<g clip-path="url(#clip2_93_6307)">
<path d="M64.2 19.7046C66.5196 19.7046 68.4 17.8242 68.4 15.5046C68.4 13.185 66.5196 11.3047 64.2 11.3047C61.8804 11.3047 60 13.185 60 15.5046C60 17.8242 61.8804 19.7046 64.2 19.7046Z" fill="#333333"/>
<path d="M59.9998 23.9C62.3194 23.9 64.1998 22.0196 64.1998 19.7C64.1998 17.3804 62.3194 15.5 59.9998 15.5C57.6802 15.5 55.7998 17.3804 55.7998 19.7C55.7998 22.0196 57.6802 23.9 59.9998 23.9Z" fill="#141414"/>
<path d="M68.4002 23.9C70.7198 23.9 72.6002 22.0196 72.6002 19.7C72.6002 17.3804 70.7198 15.5 68.4002 15.5C66.0806 15.5 64.2002 17.3804 64.2002 19.7C64.2002 22.0196 66.0806 23.9 68.4002 23.9Z" fill="#141414"/>
<path d="M59.9998 15.5C62.3194 15.5 64.1998 13.6196 64.1998 11.3C64.1998 8.98038 62.3194 7.09998 59.9998 7.09998C57.6802 7.09998 55.7998 8.98038 55.7998 11.3C55.7998 13.6196 57.6802 15.5 59.9998 15.5Z" fill="#141414"/>
<path d="M68.4002 15.5C70.7198 15.5 72.6002 13.6196 72.6002 11.3C72.6002 8.98038 70.7198 7.09998 68.4002 7.09998C66.0806 7.09998 64.2002 8.98038 64.2002 11.3C64.2002 13.6196 66.0806 15.5 68.4002 15.5Z" fill="#141414"/>
</g>
<defs>
<clipPath id="clip0_93_6307">
<rect width="30" height="30" fill="white" transform="translate(0 0.5)"/>
</clipPath>
<clipPath id="clip1_93_6307">
<rect width="18" height="18" fill="white" transform="translate(36 6.5)"/>
</clipPath>
<clipPath id="clip2_93_6307">
<rect width="8.4" height="8.4" fill="white" transform="translate(60 11.3)"/>
</clipPath>
</defs>
</svg>
