<svg width="62" height="62" viewBox="0 0 62 62" fill="none" xmlns="http://www.w3.org/2000/svg">
<rect x="0.5" y="0.5" width="61" height="61" rx="30.5" stroke="url(#paint0_linear_104_11427)"/>
<rect x="0.5" y="0.5" width="61" height="61" rx="30.5" stroke="url(#paint1_linear_104_11427)"/>
<path fill-rule="evenodd" clip-rule="evenodd" d="M17.1875 33.125C17.1875 26.6702 22.4202 21.4375 28.875 21.4375C29.4618 21.4375 29.9375 21.9132 29.9375 22.5V32.0625H39.5C40.0868 32.0625 40.5625 32.5382 40.5625 33.125C40.5625 39.5798 35.3298 44.8125 28.875 44.8125C22.4202 44.8125 17.1875 39.5798 17.1875 33.125Z" fill="#A685FA"/>
<path fill-rule="evenodd" clip-rule="evenodd" d="M32.0625 18.25C32.0625 17.6632 32.5382 17.1875 33.125 17.1875C39.5798 17.1875 44.8125 22.4202 44.8125 28.875C44.8125 29.4618 44.3368 29.9375 43.75 29.9375H33.125C32.5382 29.9375 32.0625 29.4618 32.0625 28.875V18.25Z" fill="#A685FA"/>
<defs>
<linearGradient id="paint0_linear_104_11427" x1="-6.75" y1="3.5" x2="61.75" y2="62" gradientUnits="userSpaceOnUse">
<stop stop-color="#A685FA"/>
<stop offset="0.323723" stop-color="#A685FA" stop-opacity="0"/>
</linearGradient>
<linearGradient id="paint1_linear_104_11427" x1="74.25" y1="76" x2="2.25" y2="25" gradientUnits="userSpaceOnUse">
<stop stop-color="#A685FA"/>
<stop offset="0.576615" stop-color="#A685FA" stop-opacity="0"/>
</linearGradient>
</defs>
</svg>
