<svg width="45" height="44" viewBox="0 0 45 44" fill="none" xmlns="http://www.w3.org/2000/svg">
<rect x="0.5" width="44" height="44" rx="22" fill="#703BF7"/>
<path d="M31.9274 12.5783C31.4274 12.0673 30.6874 11.8783 29.9974 12.0783L13.9074 16.7273C13.1794 16.9293 12.6634 17.5063 12.5244 18.2383C12.3824 18.9843 12.8784 19.9323 13.5264 20.3283L18.5574 23.4003C19.0734 23.7163 19.7394 23.6373 20.1664 23.2093L25.9274 17.4483C26.2174 17.1473 26.6974 17.1473 26.9874 17.4483C27.2774 17.7373 27.2774 18.2083 26.9874 18.5083L21.2164 24.2693C20.7884 24.6973 20.7084 25.3613 21.0234 25.8783L24.0974 30.9283C24.4574 31.5273 25.0774 31.8683 25.7574 31.8683C25.8374 31.8683 25.9274 31.8683 26.0074 31.8573C26.7874 31.7583 27.4074 31.2273 27.6374 30.4773L32.4074 14.5083C32.6174 13.8283 32.4274 13.0883 31.9274 12.5783Z" fill="white"/>
<path opacity="0.4" d="M19.9514 29.1423C20.2434 29.4353 20.2434 29.9103 19.9514 30.2033L18.5854 31.5683C18.4394 31.7153 18.2474 31.7883 18.0554 31.7883C17.8634 31.7883 17.6714 31.7153 17.5254 31.5683C17.2324 31.2753 17.2324 30.8013 17.5254 30.5083L18.8904 29.1423C19.1834 28.8503 19.6584 28.8503 19.9514 29.1423ZM19.1677 25.3543C19.4597 25.6473 19.4597 26.1223 19.1677 26.4153L17.8017 27.7803C17.6557 27.9273 17.4637 28.0003 17.2717 28.0003C17.0797 28.0003 16.8877 27.9273 16.7417 27.7803C16.4487 27.4873 16.4487 27.0133 16.7417 26.7203L18.1067 25.3543C18.3997 25.0623 18.8747 25.0623 19.1677 25.3543ZM15.4065 24.1619C15.6985 24.4549 15.6985 24.9299 15.4065 25.2229L14.0405 26.5879C13.8945 26.7349 13.7025 26.8079 13.5105 26.8079C13.3185 26.8079 13.1265 26.7349 12.9805 26.5879C12.6875 26.2949 12.6875 25.8209 12.9805 25.5279L14.3455 24.1619C14.6385 23.8699 15.1135 23.8699 15.4065 24.1619Z" fill="white"/>
</svg>
